<?xml version="1.0" encoding="utf-8"?>
<!-- Generator: Adobe Illustrator 16.0.0, SVG Export Plug-In . SVG Version: 6.00 Build 0)  -->
<!DOCTYPE svg PUBLIC "-//W3C//DTD SVG 1.1//EN" "http://www.w3.org/Graphics/SVG/1.1/DTD/svg11.dtd">
<svg version="1.1" id="Layer_1" xmlns="http://www.w3.org/2000/svg" xmlns:xlink="http://www.w3.org/1999/xlink" x="0px" y="0px"
	 width="283.305px" height="100px" viewBox="-5.826 0 283.305 100" enable-background="new -5.826 0 283.305 100"
	 xml:space="preserve">
<g>
	<g>
		<g>
			<g>
				<path d="M94.034,24.304c0.071,0.005,0.144,0.011,0.211,0.02C94.171,24.319,94.105,24.314,94.034,24.304z"/>
				<path d="M81.934,53.124c0.004-0.005,0.004-0.005,0.008-0.01c-0.004,0.005-0.004,0.005-0.004,0.005
					C81.938,53.197,81.934,53.197,81.934,53.124z"/>
				<path d="M77.534,5.201c-0.005,0-0.007,0-0.012,0c0,0,0.005-0.004,0.005-0.01C77.605,5.197,77.605,5.201,77.534,5.201z"/>
				<path d="M27.435,36.151c0.448-1.64,1.259-3.109,2.237-4.348c0.981-1.248,2.136-2.295,3.411-3.01
					c0.157-0.088,0.324-0.167,0.484-0.245l0.064-0.035l0.062-0.024l0.118-0.053c0.08-0.034,0.156-0.068,0.243-0.098
					c0.339-0.133,0.67-0.235,1.005-0.313c0.669-0.157,1.333-0.206,1.965-0.176c0.635,0.034,1.234,0.147,1.782,0.318
					c0.274,0.079,0.534,0.176,0.782,0.289c0.482-0.748,0.399-1.601,1.89-1.827c1.139-0.171,2.241-0.176,3.292-0.823
					c-0.32,0.596-0.883,0.911-1.52,1.111c0.857-0.245,2.046,0.289,2.923,0.695c-0.312,0.058-1.025,0.206-1.336,0.299
					c0.891,0.421,2.096,0.651,2.459,1.894c-0.191-0.088-0.83-0.43-0.989-0.524c0.878,0.642,0.701,1.905,1.544,2.482
					c-0.149-0.068-0.411-0.118-0.558-0.195c0.35,1.096,1.038,1.454,2.017,1.908c-0.633,0.354-1.534-0.068-2.04-0.475
					c0.149,0.137,0.262,0.255,0.409,0.392c-0.742,0.06-1.389-0.782-1.668-1.36c0.029,0.514,0.18,1.047,0.483,1.459
					c-1.102-0.156-1.907-0.665-2.495-1.621c-0.176,0.471,0.195,1.299,0.448,1.724c-1.261-0.318-1.602-1.68-2.282-2.506
					c0.067,0.386,0.141,0.788,0.231,1.169c-0.636-0.118-1.018-0.7-1.251-1.278c-0.182,0.392,0.294,1.822,0.509,2.217
					c-1.369-0.47-2.581-2.942-2.369-4.22l0.021-0.176c0.049-0.055,0.096-0.104,0.139-0.157c-0.229-0.083-0.467-0.161-0.714-0.225
					c-0.534-0.142-1.112-0.225-1.718-0.239c-0.602,0-1.226,0.073-1.852,0.244c-0.309,0.088-0.625,0.201-0.925,0.333
					c-0.148,0.064-0.317,0.147-0.458,0.215c-0.147,0.088-0.298,0.162-0.443,0.256c-1.171,0.72-2.236,1.762-3.115,2.981
					c-0.883,1.22-1.584,2.639-1.936,4.151c-0.161,0.754-0.236,1.528-0.169,2.292c0.028,0.187,0.04,0.377,0.082,0.558
					c0.021,0.093,0.033,0.187,0.059,0.279l0.074,0.269c0.024,0.093,0.058,0.176,0.092,0.269c0.032,0.088,0.062,0.172,0.1,0.26
					c0.085,0.167,0.151,0.348,0.245,0.489c0.046,0.079,0.085,0.151,0.137,0.23l0.175,0.255l0.087,0.128c-0.021-0.035,0,0-0.002-0.01
					l0.014,0.02l0.022,0.024l0.047,0.053l0.181,0.23c0.254,0.285,0.517,0.568,0.811,0.813c0.139,0.128,0.296,0.241,0.443,0.362
					c0.153,0.104,0.303,0.226,0.467,0.322c0.318,0.211,0.657,0.383,0.996,0.554c0.688,0.319,1.407,0.558,2.144,0.721
					c0.731,0.166,1.474,0.255,2.209,0.293c0.737,0.039,1.469,0.023,2.178-0.035c0.713-0.054,1.407-0.147,2.077-0.274
					c0.341-0.058,0.644-0.123,0.988-0.206l0.124-0.03l0.105-0.024c0.075-0.024,0.149-0.04,0.223-0.063
					c0.147-0.04,0.294-0.088,0.444-0.137c0.595-0.206,1.179-0.441,1.748-0.675c1.14-0.46,2.22-0.9,3.231-1.22
					c1.009-0.318,1.955-0.514,2.794-0.554c0.781-0.039,1.443,0.06,1.917,0.201c2.999-2.546,6.482-1.983,9.978-3.016
					c1.538-0.461,3.239-1.282,4.444-2.389c0.39-0.357,1.629-1.714,1.52-2.261c-0.185-0.925-1.156-0.656-1.654,0.01
					c-0.312-1.454,2.791-1.263,3.075-2.878c-0.917-0.128-2.475-0.876-0.955-1.748c-0.437,1.62,2.065-0.176,2.283-1.165
					c0.447-2.022-1.684-2.168-2.032-0.421c-0.421-2.958,4.513-1.958,3.888-4.783c-0.914-0.411-1.715,0.378-1.629,1.337
					c-0.474-1.641,0.403-2.659,2.132-2.875c-0.935,0.044-1.549-0.543-1.833-1.424c0.696,0.602,1.728,0.42,2.26-0.22
					c-0.518-0.128-0.744-0.293-1.102-0.622c0.874,0.314,2.435-0.367,1.708-1.562c-0.601-0.989-2.028-0.143-2.138,0.793
					c-0.056-0.969,0.668-1.674,1.432-2.105c-1.386-0.181-2.415,0.436-3.295,1.484c0.32-1.18,1.466-2.067,2.75-2.017
					c-1.243,0.02-5.552-1.42-2.654-2.664c-0.183,1.769,2.548,0.622,3.228,0.118c1.07-0.788,1.482-2.149,2.623-2.81
					c-0.704-0.039-2.045-0.696-1.01-1.317c0.215,1.813,3.724-1.64,4.629-1.556c-0.819-0.367-1.918,0.069-2.66-0.485
					c-0.717-0.534-0.988-2.002,0.207-1.978c-1.268,1.714,2.25,1.513,2.976,1.439c1.169-0.127,2.787-0.406,3.765,0.397
					c-0.382-0.553-0.995-0.9-1.569-1.224c0.847,0.122,1.532,0.225,2.304,0.646c0.793,0.441,1.268,1.229,2.275,1.083
					c-0.31-0.352-0.67-0.74-0.979-1.117c0.922,0.587,1.979,0.818,2.85,1.514c-0.32-0.847-1.541-1.146-2.025-2.111
					c1.267,0.911,3.627,1.171,4.09,2.958c0.576-0.24,0.586-0.9,0.392-1.493c0.781,0.896,1.121,1.669,0.208,2.639l0.022-0.024
					c1.918-0.142,2.594,0.793,3.988,1.801c1.172,0.843,3.475,0.632,4.288,1.641c0.901,1.111-0.35,3.054-0.981,3.877
					c-1.147,1.503-2.349,0.45-3.9,1.347c1.315-0.314,2.399-0.401,2.719,0.793c0.304,1.106-0.403,1.899,0.708,2.997
					c-1.018,0.083-1.065-0.862-1.6-1.161c0.049,0.445,0.761,1.757,1.03,2.13c-0.646-0.441-1.582-1.685-1.963-2.311
					c-0.137,0.318-0.595,0.387-0.519,1.101c-0.105-0.181-0.354-0.396-0.393-0.46c0.019,0.318-0.051,0.656-0.017,0.979
					c-0.132-1.043-2.007-2.933-3.196-2.229c-1.257,0.749,1.509,2.449,2.34,2.571c-0.854,0.024-1.613-0.059-2.404-0.211
					c0.473,0.837,1.13,1.41,2.088,1.533c-0.404-0.039-0.784-0.068-1.17-0.176c0.584,0.846,1.294,1.315,2.305,1.532
					c-1.074,0.661-1.745-0.508-2.739-0.602c1.226,0.944,1.472,1.899,1.416,3.422c0.258,0.42,0.405,0.881,0.333,1.355
					c-0.342-0.4-0.704-0.758-1.13-1.027c0.572,0.524,0.76,1.523,0.69,2.286c-0.127-0.123-0.28-0.25-0.441-0.372
					c0.955,1.033,1.062,2.747,0.46,3.975c-0.468-0.46-0.832-1.136-1.429-1.498c0.32,0.685,0.375,1.449,0.226,2.193
					c-0.192-0.573-0.556-1.273-1.222-1.414c0.479,0.758,1.023,3.392-0.333,3.49c-0.022-0.807-0.255-1.605-0.612-2.319
					c0.695,3.515-1.179,5.904-2.077,9.008c-0.424,1.458-1.359,2.77-1.747,4.219c-0.436,1.621-0.044,3.169,0.311,4.733
					c0.386,1.733,1.121,2.688,1.902,4.318c1.179,2.467,3.016,0.587,4.213,1.439c1.235,0.871,0.812,2.055,0.312,2.666
					c-0.53,0.652-1.682,0.222-2.316,0.055c-1.653-0.431-2.827-0.576-4.524-0.876c-0.681-0.122-1.562-0.294-2.06-0.872
					c-0.522-0.611-0.517-1.438-0.724-2.207c-0.176-0.651-0.576-1.141-0.712-1.856c-0.157-0.808,0.126-1.685-0.121-2.447
					c-0.188,0.128-0.546,0.187-0.686,0.274c0.115-0.289,0.084-0.695,0.176-0.974c-0.095,0.132-0.289,0.338-0.392,0.484
					c0.174-1.184-0.54-2.482-0.847-3.588c-0.185,0.137-0.369,0.102-0.583,0.362c0.088-0.26,0.016-0.514,0.077-0.757
					c-0.224,0.176-0.455,0.234-0.668,0.391c0.299-0.441,0.277-0.744,0.353-1.238c-0.631,0.881-2.124,0.063-2.988,0.689
					c-0.713,0.514-1.021,1.807-1.103,2.59c-0.099,0.959,0.156,2.109,0.413,2.98c0.292,0.975,1.08,1.509,1.348,2.453
					c0.866-0.204,3.408-0.466,2.751,1.215c1.398-0.567,2.519,2.449,0.01,2.611c-1.573,0.099-3.405-0.148-5.036-0.205
					c-1.498-0.062-3.287,0.15-3.89-1.444c-0.49-1.304-0.083-3.373-0.143-4.818c-0.149,0.069-0.417,0.088-0.579,0.183
					c0.088-0.188,0.088-0.594,0.167-0.774c-0.188,0.117-0.43,0.17-0.585,0.254c1.118-1.41-0.568-3.255-0.537-4.904
					c-0.248,0.131-0.782,0.225-1.002,0.381c0.224-0.328,0.32-0.758,0.49-1.082c-0.322,0.235-0.716,0.47-0.989,0.7
					c0.45-0.32,0.651-0.798,0.57-1.342c-0.91,0.411-2.093,0.137-3.05,0.01c-0.007,0.03-0.018,0.059-0.021,0.084
					c-0.101,0.132,0.553,1.694,0.533,2.061c-0.031,0.584-0.323,1.611-0.521,2.159c-0.448,1.233-1.557,2.086-2.875,2.468
					c-0.518,0.151-2.067-0.079-2.275,0.611c-0.231,0.769,1.179,1.431,1.504,1.855c0.972,1.284,1.884,1.368,3.157,1.771
					c0.521,0.162,2.544-0.309,2.623,1.233c0.047,0.896-2.25,1.084-2.851,1.084c-1.584-0.004-3.34,0.237-4.703-0.464
					c-2.583-1.331-1.814-5.791-4.925-6.168c0.166-0.079,0.359-0.255,0.544-0.338c-0.283,0.025-0.572-0.019-0.852,0.011
					c0.332-0.201,0.772-0.476,1.002-0.524c-0.308,0.016-0.63-0.028-0.929-0.019c1.075-0.53,3.598-0.31,3.461-1.91
					c-0.051-0.632-0.832-1.518-1.517-1.572c-1.004-0.079-1.023,0.597-1.467,1.238c-1.566,2.262-4.901,5.793-7.957,3.281
					c0.948,1.107,0.575,2.703,1.2,3.916C49.983,60,52.63,59.44,53.117,60.95c0.693,2.158-6.025,3.751-7.095,1.311
					c-0.121,0.172-0.883-0.088-0.983,0.089c0.09-0.69,0.197-1.438,0.377-2.134c-0.271,0.143-0.723,0.192-1.002,0.382
					c0.118-0.449,0.324-0.914,0.59-1.302c-0.407,0.194-0.799,0.416-1.119,0.77c-0.086-1.034,1.058-1.526,1.24-2.634
					c0.162-0.994,0.28-2.438,0.192-3.379c-0.533-0.063-1.093,0.162-1.516,0.378c0.078-0.493,0.343-0.911,0.779-1.199
					c-0.338,0.074-0.727,0.005-1.064,0.068c0.405-0.411,0.433-0.582,1.064-0.621c-0.456-0.187-0.776-0.353-1.297-0.308
					c0.706-0.778,2.367,0.039,3.483-0.621c1.28-0.749,1.835-2.14,2.292-3.466c0.511-1.493,0.947-3.197,1.759-4.647
					c-0.109-0.004-0.229-0.009-0.352-0.009c-0.608,0.005-1.397,0.118-2.311,0.373c-0.919,0.24-1.961,0.617-3.129,1.038
					c-0.586,0.21-1.202,0.431-1.879,0.636c-0.172,0.044-0.342,0.092-0.521,0.137c-0.087,0.023-0.18,0.044-0.273,0.063l-0.147,0.029
					l-0.126,0.024c-0.326,0.063-0.715,0.128-1.069,0.182c-0.728,0.104-1.48,0.176-2.255,0.2c-0.772,0.03-1.566,0.015-2.373-0.06
					c-0.804-0.073-1.623-0.205-2.434-0.425c-0.812-0.216-1.616-0.519-2.386-0.916c-0.378-0.206-0.758-0.426-1.11-0.685
					c-0.183-0.118-0.35-0.26-0.523-0.392c-0.165-0.147-0.34-0.274-0.491-0.435c-0.327-0.299-0.616-0.631-0.893-0.969l-0.198-0.264
					l-0.109-0.157l-0.084-0.126l-0.17-0.26c-0.056-0.098-0.11-0.206-0.164-0.308c-0.436-0.823-0.631-1.708-0.686-2.59
					C27.1,37.835,27.219,36.973,27.435,36.151z"/>
				<path d="M44.779,25.801c-0.002,0-0.007,0.004-0.01,0.004c0.003-0.004,0.005-0.009,0.008-0.014
					C44.792,25.757,44.795,25.757,44.779,25.801z"/>
			</g>
			<path d="M104.665,65.666c0,0-27.793-14.755-69.373,1.813C35.29,67.483,72.307,55.752,104.665,65.666z"/>
			<path d="M102.427,68.417c0,0-24.585-9.834-50.999-2.946C51.428,65.471,77.423,56.198,102.427,68.417z"/>
			<path d="M99.727,16.031c-0.486,0.099-0.67-0.2-0.686-0.509c-0.004-0.069,0.128-0.832-0.232-0.721
				c-0.169,0.049,0.083,0.896,0.125,0.96c0.213,0.318,0.368,0.352,0.789,0.285"/>
		</g>
	</g>
</g>
<g>
	<path d="M17.073,72.561l0.473,7.026h-0.473c-0.628-2.099-1.528-3.611-2.694-4.537c-1.168-0.924-2.565-1.387-4.191-1.387
		c-1.377,0-2.621,0.348-3.73,1.043c-1.108,0.701-1.978,1.808-2.606,3.328c-0.63,1.521-0.944,3.418-0.944,5.686
		c0,1.861,0.299,3.48,0.896,4.853c0.597,1.371,1.498,2.421,2.706,3.156c1.206,0.736,2.579,1.102,4.113,1.102
		c1.338,0,2.521-0.289,3.552-0.865c1.03-0.577,2.154-1.72,3.375-3.426l0.472,0.315c-1.037,1.837-2.243,3.18-3.621,4.03
		c-1.378,0.854-3.019,1.281-4.92,1.281c-3.423,0-6.075-1.272-7.949-3.816c-1.404-1.875-2.107-4.097-2.107-6.674
		c0-2.059,0.463-3.947,1.388-5.675c0.925-1.728,2.196-3.063,3.817-4.015c1.62-0.951,3.388-1.429,5.303-1.429
		c1.496,0,2.972,0.368,4.429,1.103c0.419,0.227,0.722,0.336,0.904,0.336c0.276,0,0.518-0.092,0.729-0.277
		c0.262-0.276,0.444-0.661,0.55-1.164h0.531L17.073,72.561L17.073,72.561z"/>
	<path d="M26.893,79.332c2.111,0,3.81,0.801,5.096,2.399c1.089,1.377,1.633,2.952,1.633,4.724c0,1.259-0.301,2.529-0.905,3.807
		c-0.603,1.281-1.43,2.243-2.479,2.894c-1.051,0.648-2.217,0.973-3.502,0.973c-2.099,0-3.771-0.838-5.019-2.518
		c-1.049-1.417-1.574-3.003-1.574-4.765c0-1.269,0.318-2.536,0.955-3.805c0.637-1.266,1.472-2.201,2.509-2.806
		C24.642,79.634,25.739,79.332,26.893,79.332z M26.42,80.315c-0.538,0-1.08,0.159-1.622,0.48c-0.545,0.322-0.984,0.884-1.319,1.686
		c-0.335,0.801-0.503,1.826-0.503,3.088c0,2.033,0.404,3.786,1.21,5.267c0.807,1.473,1.873,2.214,3.198,2.214
		c0.984,0,1.797-0.405,2.439-1.22c0.643-0.813,0.964-2.21,0.964-4.191c0-2.483-0.538-4.427-1.613-5.845
		C28.454,80.809,27.536,80.315,26.42,80.315z"/>
	<path d="M39.743,82.281c1.641-1.966,3.2-2.949,4.683-2.949c0.761,0,1.413,0.189,1.958,0.57c0.544,0.38,0.98,1.009,1.308,1.892
		c0.224,0.604,0.335,1.534,0.335,2.792v5.962c0,0.879,0.071,1.476,0.217,1.789c0.118,0.25,0.301,0.447,0.55,0.59
		c0.249,0.147,0.71,0.218,1.378,0.218v0.551h-6.907v-0.551h0.295c0.643,0,1.095-0.099,1.358-0.296
		c0.263-0.196,0.439-0.484,0.533-0.864c0.052-0.158,0.079-0.637,0.079-1.437V84.84c0-1.27-0.168-2.196-0.501-2.774
		c-0.334-0.576-0.89-0.865-1.663-0.865c-1.207,0-2.414,0.661-3.621,1.986v7.357c0,0.945,0.059,1.526,0.177,1.75
		c0.144,0.289,0.337,0.501,0.58,0.641c0.243,0.142,0.75,0.206,1.526,0.206v0.551h-6.908v-0.547h0.296
		c0.722,0,1.202-0.181,1.446-0.54c0.242-0.361,0.363-1.045,0.363-2.057v-5.175c0-1.679-0.037-2.702-0.107-3.072
		c-0.073-0.366-0.188-0.618-0.346-0.746c-0.156-0.133-0.367-0.195-0.629-0.195c-0.289,0-0.63,0.078-1.023,0.235l-0.236-0.552
		l4.21-1.711h0.65L39.743,82.281L39.743,82.281z"/>
	<path d="M60.307,79.332v4.761h-0.512c-0.382-1.496-0.872-2.512-1.476-3.05c-0.604-0.539-1.379-0.808-2.323-0.808
		c-0.707,0-1.279,0.192-1.71,0.561c-0.433,0.374-0.65,0.791-0.65,1.256c0,0.563,0.164,1.045,0.491,1.456
		c0.303,0.418,0.938,0.868,1.91,1.338l2.221,1.065c2.062,1.005,3.091,2.332,3.091,3.973c0,1.271-0.479,2.301-1.437,3.082
		c-0.96,0.779-2.035,1.171-3.228,1.171c-0.853,0-1.824-0.157-2.911-0.474c-0.342-0.093-0.617-0.137-0.828-0.137
		c-0.236,0-0.421,0.131-0.551,0.392h-0.512v-4.979h0.512c0.289,1.415,0.833,2.484,1.635,3.206c0.799,0.724,1.698,1.086,2.694,1.086
		c0.697,0,1.267-0.204,1.712-0.618c0.447-0.413,0.668-0.909,0.668-1.484c0-0.696-0.245-1.282-0.737-1.766
		c-0.491-0.477-1.476-1.082-2.952-1.808c-1.476-0.73-2.443-1.388-2.902-1.981c-0.46-0.577-0.689-1.31-0.689-2.2
		c0-1.144,0.394-2.104,1.182-2.877c0.787-0.774,1.81-1.161,3.069-1.161c0.537,0,1.2,0.117,1.986,0.354
		c0.515,0.157,0.861,0.236,1.043,0.236c0.157,0,0.284-0.037,0.375-0.106c0.09-0.07,0.199-0.234,0.316-0.483h0.512V79.332z"/>
	<path d="M68.234,79.332v11.216c0,0.863,0.064,1.441,0.19,1.73c0.124,0.288,0.313,0.506,0.56,0.648
		c0.25,0.147,0.709,0.218,1.377,0.218v0.551h-6.791v-0.551c0.683,0,1.144-0.066,1.377-0.194c0.235-0.132,0.425-0.348,0.561-0.652
		c0.14-0.301,0.208-0.887,0.208-1.75v-5.374c0-1.52-0.049-2.503-0.139-2.951c-0.079-0.328-0.193-0.553-0.346-0.678
		c-0.149-0.125-0.358-0.188-0.618-0.188c-0.287,0-0.637,0.08-1.045,0.234l-0.215-0.552l4.213-1.711L68.234,79.332L68.234,79.332z
		 M66.977,72.03c0.422,0,0.779,0.151,1.082,0.451c0.304,0.302,0.451,0.666,0.451,1.1c0,0.42-0.149,0.783-0.451,1.085
		c-0.303,0.304-0.661,0.449-1.082,0.449c-0.434,0-0.8-0.149-1.104-0.449c-0.302-0.302-0.451-0.661-0.451-1.085
		c0-0.434,0.149-0.798,0.451-1.1C66.177,72.182,66.544,72.03,66.977,72.03z"/>
	<path d="M76.874,72.03v18.518c0,0.863,0.064,1.441,0.193,1.73c0.134,0.288,0.328,0.506,0.589,0.648
		c0.262,0.147,0.754,0.218,1.473,0.218v0.551h-6.846v-0.551c0.644,0,1.085-0.066,1.32-0.194c0.235-0.132,0.419-0.348,0.551-0.652
		c0.132-0.301,0.192-0.887,0.192-1.75V77.876c0-1.575-0.032-2.544-0.106-2.904c-0.072-0.359-0.188-0.607-0.343-0.737
		c-0.158-0.132-0.362-0.197-0.613-0.197c-0.262,0-0.598,0.078-1.003,0.237l-0.255-0.533l4.171-1.714L76.874,72.03L76.874,72.03z"/>
	<path d="M85.55,79.332v11.216c0,0.863,0.064,1.441,0.189,1.73c0.126,0.288,0.315,0.506,0.564,0.648
		c0.247,0.147,0.707,0.218,1.376,0.218v0.551h-6.788v-0.551c0.683,0,1.14-0.066,1.378-0.194c0.234-0.132,0.424-0.348,0.564-0.652
		c0.138-0.301,0.203-0.887,0.203-1.75v-5.374c0-1.52-0.048-2.503-0.139-2.951c-0.078-0.328-0.192-0.553-0.345-0.678
		c-0.149-0.125-0.36-0.188-0.618-0.188c-0.288,0-0.636,0.08-1.045,0.234l-0.215-0.552l4.208-1.711L85.55,79.332L85.55,79.332z
		 M84.291,72.03c0.422,0,0.78,0.151,1.083,0.451c0.304,0.302,0.452,0.666,0.452,1.1c0,0.42-0.149,0.783-0.452,1.085
		c-0.303,0.304-0.661,0.449-1.083,0.449c-0.434,0-0.799-0.149-1.101-0.449c-0.304-0.302-0.453-0.661-0.453-1.085
		c0-0.434,0.149-0.798,0.453-1.1C83.492,72.182,83.859,72.03,84.291,72.03z"/>
	<path d="M101.627,79.743v8.462c0,1.613,0.039,2.603,0.118,2.962c0.078,0.363,0.201,0.614,0.364,0.747
		c0.164,0.139,0.357,0.207,0.577,0.207c0.318,0,0.669-0.084,1.062-0.258l0.218,0.533l-4.173,1.731h-0.688v-2.951
		c-1.192,1.3-2.107,2.115-2.735,2.451c-0.631,0.334-1.294,0.5-1.983,0.5c-0.789,0-1.47-0.227-2.037-0.677
		c-0.576-0.453-0.969-1.039-1.189-1.753c-0.226-0.715-0.338-1.722-0.338-3.021v-6.217c0-0.667-0.07-1.129-0.215-1.379
		c-0.143-0.25-0.358-0.442-0.64-0.58c-0.281-0.138-0.784-0.196-1.506-0.187v-0.572h4.882v9.327c0,1.31,0.225,2.169,0.678,2.569
		c0.452,0.399,1.002,0.6,1.641,0.6c0.434,0,0.923-0.135,1.473-0.404c0.551-0.27,1.21-0.79,1.969-1.565V82.36
		c0-0.789-0.146-1.323-0.433-1.604c-0.29-0.28-0.886-0.43-1.792-0.443v-0.575h4.744L101.627,79.743L101.627,79.743z"/>
	<path d="M109.144,82.301c1.011-1.008,1.608-1.593,1.792-1.75c0.458-0.379,0.958-0.678,1.485-0.896
		c0.533-0.216,1.052-0.323,1.565-0.323c0.876,0,1.633,0.255,2.26,0.767c0.629,0.511,1.049,1.245,1.261,2.202
		c1.045-1.219,1.934-2.023,2.657-2.398c0.721-0.381,1.461-0.574,2.223-0.574c0.734,0,1.388,0.193,1.967,0.574
		c0.578,0.375,1.031,1.002,1.358,1.863c0.224,0.594,0.335,1.515,0.335,2.78v5.998c0,0.867,0.064,1.465,0.196,1.788
		c0.105,0.226,0.295,0.412,0.571,0.574c0.277,0.155,0.723,0.234,1.339,0.234v0.551h-6.886v-0.547h0.298
		c0.602,0,1.066-0.116,1.391-0.354c0.236-0.157,0.409-0.414,0.512-0.767c0.042-0.173,0.064-0.663,0.064-1.476v-6.002
		c0-1.142-0.143-1.94-0.414-2.401c-0.393-0.657-1.03-0.984-1.906-0.984c-0.537,0-1.083,0.135-1.623,0.405
		c-0.545,0.269-1.208,0.77-1.98,1.505l-0.021,0.156l0.021,0.668v6.65c0,0.96,0.059,1.554,0.167,1.779
		c0.109,0.23,0.318,0.422,0.61,0.576c0.296,0.158,0.796,0.237,1.507,0.237v0.551h-7.069v-0.544c0.775,0,1.306-0.093,1.596-0.276
		c0.286-0.188,0.492-0.458,0.61-0.829c0.055-0.171,0.078-0.666,0.078-1.495v-5.998c0-1.142-0.17-1.961-0.512-2.461
		c-0.446-0.642-1.069-0.963-1.869-0.963c-0.552,0-1.092,0.144-1.634,0.433c-0.838,0.448-1.488,0.952-1.947,1.515v7.479
		c0,0.905,0.064,1.495,0.189,1.769c0.125,0.278,0.317,0.485,0.563,0.622c0.248,0.138,0.753,0.205,1.513,0.205v0.551h-6.886v-0.55
		c0.642,0,1.088-0.068,1.341-0.205c0.25-0.141,0.441-0.355,0.572-0.652c0.133-0.292,0.195-0.876,0.195-1.739v-5.334
		c0-1.536-0.044-2.523-0.138-2.971c-0.064-0.34-0.175-0.573-0.323-0.698c-0.149-0.125-0.36-0.188-0.619-0.188
		c-0.288,0-0.627,0.08-1.023,0.234l-0.234-0.552l4.211-1.711h0.647v2.97L109.144,82.301L109.144,82.301z"/>
</g>
<g>
	<path d="M155.887,48.687v-21h2.34v18.87h6v2.13H155.887z"/>
	<path d="M173.465,36.987v2.1h-5.129v7.47h6.299v2.13h-8.639v-21h8.639v2.13h-6.299v7.17H173.465z"/>
	<path d="M179.166,44.457l-0.811,4.23h-2.16l4.02-21h3.392l4.021,21h-2.34l-0.812-4.23H179.166z M179.465,42.447h4.68l-2.369-12.12
		L179.465,42.447z"/>
	<path d="M194.375,27.687c1.642,0,2.846,0.465,3.616,1.395c0.771,0.93,1.154,2.205,1.154,3.825v10.59c0,1.62-0.386,2.89-1.154,3.81
		c-0.771,0.92-1.976,1.38-3.616,1.38h-4.92v-21H194.375z M194.346,46.557c0.84,0,1.465-0.255,1.875-0.765
		c0.408-0.51,0.613-1.245,0.613-2.205v-10.8c0-0.96-0.205-1.695-0.613-2.205c-0.41-0.51-1.045-0.765-1.905-0.765h-2.521v16.74
		H194.346z"/>
	<path d="M208.805,36.987v2.1h-5.131v7.47h6.301v2.13h-8.641v-21h8.641v2.13h-6.301v7.17H208.805z"/>
	<path d="M216.814,27.687c1.66,0,2.854,0.41,3.585,1.229c0.729,0.82,1.095,2.01,1.095,3.57v1.71c0,1.16-0.209,2.1-0.63,2.82
		c-0.42,0.72-1.079,1.22-1.979,1.5c0.961,0.28,1.641,0.795,2.041,1.545c0.398,0.75,0.6,1.695,0.6,2.835v3.27
		c0,0.46,0.02,0.905,0.061,1.335c0.039,0.43,0.16,0.825,0.359,1.186h-2.37c-0.14-0.3-0.239-0.625-0.3-0.975s-0.09-0.875-0.09-1.575
		v-3.3c0-1.18-0.266-1.995-0.795-2.445c-0.53-0.45-1.285-0.675-2.266-0.675h-1.649v8.97h-2.341v-21H216.814z M216.215,37.587
		c0.938,0,1.668-0.195,2.188-0.585c0.521-0.39,0.78-1.155,0.78-2.295v-2.01c0-0.96-0.186-1.68-0.555-2.16
		c-0.371-0.48-0.996-0.72-1.875-0.72h-2.28v7.77H216.215z"/>
	<path d="M228.365,27.477c1.6,0,2.779,0.475,3.54,1.425c0.761,0.95,1.14,2.225,1.14,3.825v0.57h-2.22v-0.69
		c0-0.96-0.19-1.7-0.569-2.22c-0.381-0.52-0.99-0.78-1.83-0.78s-1.45,0.26-1.83,0.78c-0.381,0.52-0.57,1.25-0.57,2.19
		c0,0.78,0.176,1.46,0.525,2.04c0.349,0.58,0.785,1.115,1.305,1.605c0.521,0.49,1.085,0.97,1.695,1.44
		c0.609,0.47,1.175,0.985,1.695,1.545c0.52,0.56,0.954,1.195,1.305,1.905c0.35,0.71,0.524,1.556,0.524,2.535
		c0,1.601-0.386,2.875-1.155,3.825c-0.771,0.95-1.965,1.425-3.584,1.425c-1.621,0-2.812-0.475-3.57-1.425
		c-0.76-0.95-1.141-2.225-1.141-3.825v-1.2h2.189v1.32c0,0.96,0.199,1.7,0.602,2.22c0.398,0.521,1.02,0.78,1.858,0.78
		c0.841,0,1.46-0.26,1.86-0.78c0.399-0.52,0.601-1.26,0.601-2.22c0-0.78-0.176-1.455-0.524-2.025c-0.352-0.57-0.785-1.1-1.306-1.59
		c-0.521-0.49-1.08-0.97-1.681-1.44c-0.6-0.47-1.16-0.985-1.68-1.545c-0.521-0.56-0.955-1.195-1.306-1.905s-0.524-1.555-0.524-2.535
		c0-1.62,0.379-2.9,1.14-3.84C225.614,27.947,226.785,27.477,228.365,27.477z"/>
	<path d="M237.455,39.237v9.45h-2.341v-21h2.341v9.45h5.159v-9.45h2.341v21h-2.341v-9.45H237.455z"/>
	<path d="M249.694,27.687v21h-2.34v-21H249.694z"/>
	<path d="M256.684,27.687c1.66,0,2.859,0.455,3.6,1.365c0.741,0.91,1.11,2.165,1.11,3.765v2.52c0,1.68-0.396,2.945-1.185,3.795
		c-0.791,0.851-2.025,1.275-3.705,1.275h-2.07v8.28h-2.34v-21H256.684z M256.504,38.307c0.879,0,1.528-0.215,1.949-0.645
		c0.42-0.43,0.631-1.155,0.631-2.175v-2.79c0-0.96-0.187-1.68-0.557-2.16s-0.984-0.72-1.845-0.72h-2.25v8.49H256.504z"/>
</g>
<g>
	<path d="M149.879,53.645c1.641,0,2.846,0.465,3.615,1.396s1.154,2.205,1.154,3.825v10.59c0,1.62-0.385,2.891-1.154,3.811
		c-0.771,0.92-1.977,1.381-3.615,1.381h-4.92v-21h4.92V53.645z M149.85,72.516c0.84,0,1.465-0.256,1.875-0.766
		c0.409-0.511,0.614-1.245,0.614-2.205V58.744c0-0.96-0.205-1.694-0.614-2.205c-0.41-0.51-1.046-0.766-1.906-0.766h-2.52v16.74
		h2.551V72.516z"/>
	<path d="M164.309,62.943v2.102h-5.13v7.471h6.3v2.129h-8.64v-21h8.64v2.131h-6.3v7.17h5.13V62.943z"/>
	<path d="M169.408,53.645l3.42,18.271l3.391-18.271h2.16l-3.932,21h-3.449l-3.96-21H169.408z"/>
	<path d="M187.648,62.943v2.102h-5.129v7.471h6.299v2.129h-8.64v-21h8.64v2.131h-6.299v7.17h5.129V62.943z"/>
	<path d="M190.979,74.645v-21h2.34v18.871h6v2.129H190.979z"/>
	<path d="M200.906,58.715c0-1.62,0.396-2.904,1.187-3.855c0.79-0.948,1.995-1.424,3.615-1.424s2.829,0.476,3.63,1.424
		c0.801,0.951,1.2,2.235,1.2,3.855v10.859c0,1.601-0.399,2.88-1.2,3.84c-0.801,0.961-2.01,1.439-3.63,1.439
		s-2.825-0.479-3.615-1.439c-0.79-0.96-1.187-2.239-1.187-3.84V58.715z M203.218,69.693c0,0.961,0.205,1.705,0.615,2.236
		c0.409,0.529,1.035,0.795,1.875,0.795c0.858,0,1.489-0.266,1.89-0.795c0.399-0.531,0.6-1.275,0.6-2.236v-11.1
		c0-0.96-0.199-1.705-0.6-2.234s-1.029-0.795-1.89-0.795c-0.84,0-1.466,0.266-1.875,0.795c-0.41,0.529-0.615,1.274-0.615,2.234
		V69.693z"/>
	<path d="M217.348,53.645c1.66,0,2.859,0.455,3.6,1.365c0.742,0.91,1.111,2.165,1.111,3.766v2.521c0,1.681-0.396,2.944-1.186,3.795
		c-0.791,0.851-2.025,1.274-3.705,1.274h-2.07v8.279h-2.34v-21H217.348z M217.168,64.266c0.88,0,1.529-0.216,1.949-0.646
		c0.421-0.43,0.631-1.154,0.631-2.176v-2.789c0-0.961-0.186-1.68-0.557-2.16c-0.369-0.479-0.984-0.721-1.844-0.721h-2.25v8.49h2.07
		V64.266z"/>
	<path d="M231.718,74.614h-2.25l-3.479-16.71v16.74h-2.041v-21h3.271l3.449,16.77l3.33-16.77h3.271v21h-2.222V57.754L231.718,74.614
		z"/>
	<path d="M247.137,62.943v2.102h-5.13v7.471h6.3v2.129h-8.64v-21h8.64v2.131h-6.3v7.17h5.13V62.943z"/>
	<path d="M252.536,74.645h-2.101v-21h2.971l4.859,15.181V53.645h2.07v21h-2.432l-5.369-16.979L252.536,74.645L252.536,74.645z"/>
	<path d="M265.796,74.645V55.775h-3.87v-2.131h10.08v2.131h-3.87v18.869H265.796z"/>
</g>
<path fill="none" stroke="#000000" stroke-miterlimit="10" d="M135.75,90"/>
<g>
	<path d="M133.631,98.48c0,0-0.053-1.52-0.146-4.178c-0.061-2.658-0.207-6.455-0.275-11.013c-0.062-4.558-0.2-9.873-0.229-15.567
		c-0.032-5.697-0.065-11.771-0.1-17.849c0.033-6.075,0.067-12.151,0.099-17.847c0.024-5.696,0.167-11.012,0.229-15.569
		c0.066-4.557,0.216-8.354,0.276-11.012c0.093-2.658,0.146-4.177,0.146-4.177s0.053,1.519,0.146,4.177
		c0.061,2.658,0.21,6.455,0.276,11.012c0.062,4.557,0.204,9.873,0.229,15.569c0.031,5.696,0.065,11.772,0.099,17.847
		c-0.034,6.076-0.067,12.151-0.1,17.849c-0.028,5.694-0.167,11.012-0.229,15.567c-0.068,4.558-0.215,8.354-0.275,11.013
		C133.684,96.962,133.631,98.48,133.631,98.48z"/>
</g>
</svg>
