<?xml version="1.0" encoding="utf-8"?>
<!-- Generator: Adobe Illustrator 16.0.0, SVG Export Plug-In . SVG Version: 6.00 Build 0)  -->
<!DOCTYPE svg PUBLIC "-//W3C//DTD SVG 1.1//EN" "http://www.w3.org/Graphics/SVG/1.1/DTD/svg11.dtd">
<svg version="1.1" id="Layer_1" xmlns="http://www.w3.org/2000/svg" xmlns:xlink="http://www.w3.org/1999/xlink" x="0px" y="0px"
	 width="267.75px" height="100px" viewBox="0 0 267.75 100" enable-background="new 0 0 267.75 100" xml:space="preserve">
<g>
	<g>
		<g>
			<g>
				<path d="M94.839,19.938c0.069,0.005,0.14,0.01,0.206,0.019C94.973,19.952,94.908,19.947,94.839,19.938z"/>
				<path d="M83.014,48.101c0.004-0.004,0.004-0.004,0.008-0.009c-0.004,0.005-0.004,0.005-0.004,0.005
					C83.018,48.173,83.014,48.173,83.014,48.101z"/>
				<path d="M78.715,1.27c-0.005,0-0.007,0-0.012,0c0,0,0.005-0.004,0.005-0.009C78.784,1.266,78.784,1.27,78.715,1.27z"/>
				<path d="M29.757,31.515c0.438-1.603,1.231-3.038,2.186-4.249c0.959-1.219,2.087-2.243,3.333-2.942
					c0.153-0.086,0.317-0.163,0.473-0.239l0.063-0.034l0.06-0.024l0.116-0.052c0.078-0.033,0.152-0.067,0.237-0.095
					c0.331-0.13,0.655-0.23,0.982-0.307c0.654-0.153,1.303-0.201,1.92-0.172c0.62,0.033,1.206,0.144,1.741,0.311
					c0.268,0.077,0.522,0.172,0.764,0.282c0.471-0.731,0.39-1.564,1.847-1.785c1.113-0.167,2.19-0.172,3.217-0.804
					c-0.313,0.583-0.863,0.89-1.485,1.086c0.838-0.239,2,0.282,2.857,0.679c-0.305,0.057-1.002,0.201-1.306,0.292
					c0.871,0.412,2.049,0.636,2.404,1.851c-0.187-0.086-0.811-0.42-0.967-0.512c0.858,0.627,0.685,1.861,1.509,2.425
					c-0.146-0.067-0.402-0.115-0.545-0.191c0.342,1.071,1.014,1.421,1.971,1.865c-0.619,0.345-1.499-0.067-1.994-0.464
					c0.146,0.134,0.256,0.249,0.4,0.383c-0.725,0.058-1.357-0.765-1.63-1.33c0.028,0.502,0.176,1.023,0.472,1.426
					c-1.077-0.153-1.864-0.65-2.438-1.584c-0.172,0.46,0.191,1.269,0.438,1.684c-1.232-0.311-1.565-1.641-2.23-2.449
					c0.066,0.377,0.137,0.77,0.226,1.143c-0.621-0.115-0.994-0.684-1.222-1.249c-0.178,0.383,0.287,1.78,0.497,2.167
					c-1.338-0.459-2.522-2.875-2.315-4.124l0.02-0.172c0.048-0.053,0.094-0.101,0.136-0.153c-0.224-0.082-0.456-0.157-0.698-0.22
					c-0.522-0.139-1.087-0.22-1.679-0.234c-0.588,0-1.197,0.072-1.809,0.239c-0.302,0.086-0.611,0.196-0.904,0.325
					c-0.145,0.063-0.31,0.144-0.448,0.21c-0.144,0.086-0.291,0.158-0.433,0.25c-1.144,0.703-2.185,1.722-3.044,2.913
					c-0.863,1.192-1.548,2.579-1.891,4.057c-0.158,0.737-0.231,1.493-0.165,2.239c0.027,0.182,0.039,0.369,0.08,0.545
					c0.02,0.091,0.032,0.182,0.057,0.273l0.073,0.263c0.023,0.091,0.056,0.172,0.089,0.263c0.032,0.086,0.06,0.168,0.098,0.254
					c0.083,0.163,0.148,0.34,0.239,0.478c0.045,0.077,0.083,0.148,0.134,0.225l0.171,0.249l0.085,0.125c-0.021-0.034,0,0-0.002-0.01
					l0.013,0.019l0.022,0.024l0.046,0.052l0.176,0.225c0.249,0.278,0.505,0.555,0.793,0.794c0.136,0.125,0.289,0.235,0.433,0.354
					c0.15,0.101,0.296,0.22,0.456,0.315c0.311,0.206,0.642,0.374,0.974,0.541c0.672,0.312,1.375,0.545,2.095,0.704
					c0.714,0.162,1.44,0.249,2.159,0.287c0.72,0.038,1.436,0.023,2.128-0.034c0.697-0.053,1.375-0.144,2.03-0.268
					c0.333-0.057,0.629-0.12,0.966-0.201l0.121-0.029l0.103-0.024c0.073-0.024,0.146-0.039,0.218-0.062
					c0.144-0.039,0.288-0.086,0.434-0.134c0.581-0.201,1.152-0.431,1.708-0.66c1.114-0.45,2.169-0.88,3.158-1.192
					c0.986-0.311,1.91-0.502,2.73-0.541c0.763-0.038,1.41,0.058,1.873,0.196c2.93-2.488,6.334-1.938,9.75-2.947
					c1.503-0.45,3.165-1.253,4.343-2.334c0.381-0.349,1.592-1.675,1.485-2.21c-0.181-0.904-1.13-0.641-1.616,0.01
					c-0.305-1.421,2.727-1.234,3.005-2.813c-0.897-0.125-2.419-0.856-0.934-1.708c-0.427,1.583,2.019-0.172,2.231-1.139
					c0.437-1.976-1.646-2.119-1.986-0.411c-0.412-2.89,4.41-1.914,3.799-4.674c-0.893-0.402-1.676,0.369-1.592,1.306
					c-0.463-1.603,0.394-2.598,2.084-2.809c-0.914,0.043-1.514-0.531-1.791-1.392c0.68,0.588,1.688,0.411,2.209-0.215
					c-0.506-0.125-0.727-0.287-1.077-0.608c0.854,0.307,2.379-0.358,1.669-1.526c-0.587-0.966-1.982-0.139-2.089,0.775
					c-0.054-0.947,0.653-1.636,1.399-2.057c-1.354-0.177-2.359,0.426-3.22,1.45c0.313-1.153,1.433-2.02,2.688-1.971
					c-1.215,0.019-5.426-1.388-2.594-2.603C71.667,10.84,74.336,9.72,75,9.227c1.046-0.77,1.448-2.1,2.563-2.746
					c-0.688-0.038-1.998-0.68-0.987-1.287c0.21,1.771,3.639-1.603,4.524-1.521c-0.8-0.359-1.875,0.067-2.599-0.474
					c-0.701-0.521-0.966-1.957,0.202-1.933c-1.239,1.675,2.199,1.479,2.908,1.407c1.143-0.124,2.723-0.397,3.679,0.388
					c-0.373-0.541-0.972-0.88-1.533-1.196c0.827,0.119,1.497,0.22,2.251,0.631c0.775,0.431,1.239,1.201,2.223,1.058
					c-0.303-0.344-0.655-0.723-0.957-1.091c0.901,0.574,1.933,0.799,2.785,1.479c-0.313-0.828-1.506-1.12-1.979-2.063
					c1.238,0.89,3.545,1.144,3.997,2.89c0.563-0.235,0.573-0.88,0.383-1.459c0.763,0.875,1.095,1.631,0.203,2.579l0.022-0.024
					c1.875-0.139,2.535,0.775,3.897,1.76c1.146,0.823,3.396,0.617,4.19,1.603c0.881,1.086-0.342,2.985-0.959,3.789
					c-1.121,1.469-2.295,0.44-3.811,1.316c1.285-0.307,2.344-0.392,2.657,0.775c0.297,1.081-0.394,1.856,0.692,2.928
					c-0.994,0.082-1.041-0.842-1.563-1.134c0.048,0.435,0.743,1.717,1.007,2.081c-0.632-0.431-1.546-1.646-1.919-2.258
					c-0.134,0.311-0.581,0.378-0.507,1.076c-0.103-0.177-0.345-0.388-0.383-0.45c0.018,0.311-0.05,0.641-0.017,0.957
					c-0.129-1.019-1.961-2.866-3.123-2.177c-1.229,0.732,1.475,2.393,2.287,2.512c-0.834,0.024-1.576-0.057-2.349-0.206
					c0.462,0.818,1.104,1.378,2.04,1.498c-0.395-0.038-0.766-0.067-1.143-0.172c0.571,0.827,1.265,1.286,2.252,1.497
					c-1.049,0.646-1.705-0.497-2.676-0.588c1.198,0.923,1.438,1.856,1.383,3.344c0.252,0.411,0.396,0.861,0.326,1.325
					c-0.334-0.392-0.688-0.741-1.104-1.004c0.559,0.512,0.743,1.488,0.674,2.234c-0.124-0.12-0.274-0.244-0.431-0.364
					c0.933,1.01,1.037,2.684,0.449,3.885c-0.457-0.45-0.813-1.11-1.396-1.464c0.313,0.669,0.367,1.416,0.221,2.143
					c-0.188-0.56-0.543-1.244-1.194-1.382c0.469,0.741,1,3.315-0.325,3.411c-0.022-0.789-0.249-1.569-0.599-2.267
					c0.68,3.435-1.152,5.77-2.029,8.803c-0.414,1.425-1.328,2.707-1.707,4.123c-0.426,1.584-0.043,3.096,0.303,4.626
					c0.377,1.693,1.096,2.626,1.859,4.22c1.152,2.41,2.947,0.573,4.117,1.406c1.207,0.852,0.793,2.009,0.305,2.605
					c-0.518,0.638-1.643,0.217-2.264,0.054c-1.615-0.421-2.762-0.563-4.42-0.856c-0.666-0.119-1.527-0.287-2.013-0.852
					c-0.51-0.598-0.505-1.406-0.708-2.157c-0.172-0.637-0.563-1.114-0.695-1.813c-0.154-0.79,0.123-1.647-0.119-2.392
					c-0.184,0.125-0.533,0.182-0.67,0.268c0.113-0.283,0.082-0.68,0.172-0.952c-0.092,0.129-0.282,0.33-0.383,0.474
					c0.17-1.158-0.527-2.426-0.828-3.507c-0.18,0.134-0.36,0.1-0.569,0.354c0.086-0.254,0.015-0.502,0.075-0.741
					c-0.219,0.172-0.445,0.229-0.653,0.382c0.292-0.431,0.271-0.727,0.345-1.21c-0.617,0.861-2.076,0.062-2.92,0.674
					c-0.697,0.502-0.998,1.765-1.078,2.531c-0.097,0.938,0.152,2.062,0.403,2.913c0.285,0.952,1.056,1.474,1.317,2.397
					c0.846-0.199,3.33-0.455,2.689,1.188c1.366-0.555,2.461,2.393,0.01,2.551c-1.537,0.097-3.328-0.145-4.921-0.2
					c-1.464-0.06-3.212,0.146-3.801-1.412c-0.479-1.274-0.081-3.296-0.14-4.708c-0.146,0.067-0.407,0.086-0.566,0.177
					c0.086-0.182,0.086-0.579,0.164-0.756c-0.184,0.115-0.42,0.167-0.572,0.249c1.092-1.378-0.556-3.181-0.525-4.793
					c-0.242,0.129-0.764,0.22-0.979,0.373c0.218-0.32,0.313-0.741,0.479-1.057c-0.315,0.23-0.7,0.459-0.967,0.684
					c0.44-0.313,0.637-0.78,0.557-1.311c-0.889,0.402-2.045,0.134-2.98,0.01c-0.007,0.029-0.018,0.057-0.021,0.082
					c-0.099,0.129,0.54,1.655,0.521,2.014c-0.031,0.57-0.316,1.574-0.51,2.11c-0.438,1.205-1.521,2.038-2.81,2.411
					c-0.506,0.148-2.02-0.077-2.223,0.598c-0.226,0.751,1.152,1.397,1.469,1.813c0.95,1.255,1.841,1.337,3.085,1.73
					c0.51,0.158,2.486-0.302,2.563,1.205c0.046,0.877-2.199,1.059-2.786,1.059c-1.548-0.004-3.264,0.233-4.596-0.453
					c-2.524-1.301-1.773-5.659-4.813-6.027c0.162-0.077,0.351-0.249,0.532-0.33c-0.277,0.024-0.559-0.019-0.833,0.01
					c0.324-0.196,0.755-0.464,0.98-0.512c-0.301,0.014-0.616-0.029-0.908-0.019c1.051-0.517,3.516-0.302,3.382-1.866
					c-0.05-0.617-0.813-1.483-1.482-1.536c-0.981-0.077-1,0.584-1.433,1.21c-1.531,2.21-4.79,5.66-7.776,3.206
					c0.927,1.082,0.562,2.642,1.173,3.827c0.729,1.41,3.316,0.863,3.791,2.339c0.677,2.108-5.888,3.665-6.933,1.28
					c-0.118,0.168-0.863-0.086-0.961,0.087c0.088-0.675,0.193-1.404,0.368-2.085c-0.264,0.14-0.706,0.188-0.979,0.373
					c0.116-0.438,0.317-0.893,0.577-1.272c-0.398,0.19-0.781,0.407-1.094,0.752c-0.084-1.01,1.033-1.491,1.212-2.573
					c0.158-0.972,0.274-2.383,0.188-3.302c-0.521-0.063-1.068,0.158-1.481,0.369c0.076-0.483,0.335-0.89,0.761-1.172
					c-0.33,0.072-0.71,0.005-1.04,0.067c0.396-0.402,0.423-0.569,1.04-0.607c-0.445-0.182-0.758-0.345-1.267-0.301
					c0.69-0.761,2.313,0.038,3.404-0.607c1.251-0.732,1.794-2.091,2.24-3.387c0.499-1.459,0.926-3.124,1.719-4.541
					c-0.107-0.004-0.224-0.009-0.344-0.009c-0.594,0.005-1.365,0.115-2.258,0.364c-0.898,0.234-1.916,0.603-3.058,1.014
					c-0.572,0.206-1.174,0.421-1.836,0.622c-0.168,0.043-0.334,0.09-0.51,0.134c-0.085,0.023-0.176,0.043-0.267,0.062l-0.144,0.029
					l-0.123,0.024c-0.319,0.062-0.699,0.125-1.045,0.177c-0.711,0.101-1.447,0.172-2.204,0.196
					c-0.755,0.029-1.531,0.014-2.319-0.058c-0.786-0.072-1.586-0.201-2.379-0.416c-0.793-0.211-1.579-0.507-2.331-0.895
					c-0.37-0.201-0.741-0.416-1.085-0.669c-0.179-0.115-0.342-0.254-0.511-0.383c-0.161-0.144-0.332-0.268-0.48-0.425
					c-0.32-0.292-0.602-0.617-0.872-0.947l-0.194-0.258l-0.107-0.153l-0.082-0.124l-0.166-0.254
					c-0.055-0.096-0.108-0.201-0.16-0.301c-0.426-0.804-0.617-1.669-0.67-2.531C29.43,33.16,29.546,32.318,29.757,31.515z"/>
				<path d="M46.706,21.401c-0.002,0-0.007,0.004-0.01,0.004c0.003-0.004,0.005-0.009,0.008-0.014
					C46.719,21.358,46.722,21.358,46.706,21.401z"/>
			</g>
			<path d="M105.227,60.357c0,0-27.16-14.419-67.792,1.772C37.433,62.133,73.607,50.669,105.227,60.357z"/>
			<path d="M103.041,63.046c0,0-24.025-9.61-49.837-2.88C53.204,60.166,78.607,51.105,103.041,63.046z"/>
			<path d="M100.402,11.853c-0.475,0.096-0.655-0.196-0.67-0.498c-0.004-0.067,0.125-0.813-0.227-0.704
				c-0.165,0.048,0.081,0.876,0.122,0.938c0.208,0.311,0.36,0.344,0.771,0.278"/>
		</g>
	</g>
</g>
<g>
	<path d="M19.632,67.095l0.462,6.866h-0.462c-0.614-2.051-1.494-3.529-2.633-4.434c-1.142-0.903-2.507-1.355-4.096-1.355
		c-1.346,0-2.561,0.34-3.645,1.02c-1.083,0.684-1.933,1.766-2.547,3.252C6.095,73.93,5.788,75.783,5.788,78
		c0,1.818,0.292,3.4,0.875,4.741c0.583,1.34,1.464,2.366,2.644,3.085c1.179,0.719,2.52,1.076,4.019,1.076
		c1.308,0,2.464-0.282,3.471-0.846c1.006-0.563,2.105-1.68,3.298-3.347l0.461,0.308c-1.013,1.795-2.192,3.108-3.538,3.939
		c-1.347,0.835-2.95,1.252-4.808,1.252c-3.345,0-5.936-1.244-7.768-3.73c-1.372-1.832-2.059-4.004-2.059-6.521
		c0-2.011,0.452-3.858,1.356-5.546c0.904-1.688,2.146-2.993,3.73-3.923c1.583-0.929,3.311-1.396,5.182-1.396
		c1.462,0,2.904,0.359,4.328,1.077c0.409,0.221,0.705,0.328,0.883,0.328c0.27,0,0.506-0.089,0.712-0.271
		c0.256-0.27,0.435-0.646,0.538-1.137h0.519L19.632,67.095L19.632,67.095z"/>
	<path d="M29.228,73.712c2.063,0,3.723,0.782,4.98,2.345c1.064,1.346,1.596,2.885,1.596,4.616c0,1.229-0.294,2.472-0.884,3.72
		c-0.589,1.252-1.397,2.192-2.422,2.827c-1.027,0.634-2.167,0.951-3.423,0.951c-2.051,0-3.685-0.819-4.904-2.461
		c-1.025-1.385-1.538-2.935-1.538-4.655c0-1.24,0.311-2.479,0.933-3.719c0.622-1.236,1.438-2.15,2.452-2.741
		C27.028,74.007,28.1,73.712,29.228,73.712z M28.766,74.673c-0.526,0-1.055,0.155-1.585,0.47c-0.532,0.314-0.962,0.863-1.289,1.646
		S25.4,78.574,25.4,79.807c0,1.987,0.395,3.7,1.183,5.146c0.788,1.44,1.83,2.164,3.125,2.164c0.962,0,1.756-0.396,2.384-1.192
		c0.628-0.795,0.942-2.16,0.942-4.096c0-2.426-0.525-4.326-1.576-5.712C30.753,75.154,29.856,74.673,28.766,74.673z"/>
	<path d="M41.785,76.594c1.603-1.921,3.127-2.882,4.576-2.882c0.744,0,1.381,0.185,1.914,0.558c0.532,0.371,0.958,0.985,1.278,1.847
		c0.219,0.59,0.328,1.5,0.328,2.729v5.826c0,0.859,0.069,1.442,0.212,1.748c0.115,0.245,0.294,0.438,0.538,0.577
		c0.243,0.144,0.693,0.213,1.346,0.213v0.538h-6.749V87.21h0.288c0.628,0,1.07-0.097,1.327-0.289
		c0.257-0.192,0.429-0.474,0.521-0.845c0.05-0.155,0.077-0.622,0.077-1.404v-5.578c0-1.24-0.164-2.146-0.49-2.711
		c-0.326-0.563-0.869-0.846-1.625-0.846c-1.179,0-2.358,0.646-3.538,1.941v7.19c0,0.924,0.057,1.492,0.173,1.71
		c0.14,0.283,0.329,0.49,0.567,0.627c0.237,0.137,0.733,0.201,1.491,0.201v0.538h-6.75V87.21h0.289c0.705,0,1.175-0.177,1.413-0.528
		c0.237-0.353,0.355-1.021,0.355-2.01v-5.057c0-1.641-0.036-2.641-0.105-3.002c-0.071-0.358-0.183-0.604-0.337-0.729
		c-0.153-0.13-0.359-0.19-0.615-0.19c-0.282,0-0.616,0.076-1,0.229l-0.231-0.539l4.114-1.672h0.635L41.785,76.594L41.785,76.594z"/>
	<path d="M61.88,73.712v4.652h-0.5c-0.373-1.462-0.852-2.455-1.442-2.98c-0.591-0.526-1.347-0.789-2.27-0.789
		c-0.691,0-1.25,0.187-1.672,0.548c-0.423,0.365-0.635,0.772-0.635,1.226c0,0.55,0.16,1.022,0.48,1.423
		c0.296,0.409,0.917,0.848,1.866,1.307l2.17,1.041c2.015,0.983,3.021,2.28,3.021,3.883c0,1.242-0.469,2.248-1.404,3.012
		c-0.938,0.762-1.988,1.144-3.154,1.144c-0.833,0-1.782-0.153-2.845-0.462c-0.334-0.091-0.603-0.134-0.809-0.134
		c-0.231,0-0.411,0.128-0.538,0.383h-0.5V83.1h0.5c0.282,1.383,0.814,2.428,1.597,3.133c0.781,0.707,1.66,1.061,2.633,1.061
		c0.681,0,1.238-0.2,1.673-0.604c0.437-0.404,0.653-0.889,0.653-1.451c0-0.68-0.239-1.252-0.72-1.725
		c-0.48-0.466-1.442-1.058-2.885-1.767c-1.442-0.714-2.387-1.356-2.836-1.937c-0.449-0.563-0.673-1.279-0.673-2.149
		c0-1.118,0.385-2.056,1.155-2.812c0.769-0.756,1.769-1.134,2.999-1.134c0.525,0,1.173,0.114,1.941,0.345
		c0.503,0.154,0.842,0.231,1.02,0.231c0.153,0,0.277-0.036,0.366-0.104c0.088-0.069,0.194-0.229,0.309-0.472h0.5V73.712z"/>
	<path d="M69.627,73.712v10.96c0,0.844,0.063,1.409,0.186,1.691c0.121,0.281,0.306,0.494,0.547,0.634
		c0.244,0.144,0.693,0.213,1.346,0.213v0.538H65.07V87.21c0.667,0,1.118-0.065,1.346-0.19c0.23-0.129,0.415-0.34,0.548-0.638
		c0.136-0.294,0.203-0.866,0.203-1.71v-5.251c0-1.485-0.048-2.446-0.136-2.885c-0.077-0.32-0.189-0.54-0.338-0.662
		c-0.146-0.122-0.35-0.183-0.604-0.183c-0.28,0-0.622,0.078-1.021,0.229l-0.21-0.539l4.117-1.672L69.627,73.712L69.627,73.712z
		 M68.398,66.576c0.412,0,0.761,0.148,1.057,0.441c0.297,0.295,0.441,0.651,0.441,1.075c0,0.41-0.146,0.765-0.441,1.06
		c-0.296,0.297-0.646,0.439-1.057,0.439c-0.424,0-0.782-0.146-1.078-0.439c-0.295-0.295-0.441-0.646-0.441-1.06
		c0-0.424,0.146-0.78,0.441-1.075C67.616,66.725,67.975,66.576,68.398,66.576z"/>
	<path d="M78.07,66.576v18.096c0,0.844,0.063,1.409,0.189,1.691c0.131,0.281,0.32,0.494,0.576,0.634
		c0.256,0.144,0.737,0.213,1.439,0.213v0.538h-6.69V87.21c0.629,0,1.06-0.065,1.29-0.19c0.23-0.129,0.409-0.34,0.538-0.638
		c0.129-0.294,0.188-0.866,0.188-1.71V72.289c0-1.539-0.031-2.486-0.104-2.838c-0.07-0.352-0.184-0.594-0.335-0.721
		c-0.154-0.129-0.354-0.193-0.599-0.193c-0.256,0-0.584,0.077-0.98,0.232l-0.249-0.521l4.076-1.675L78.07,66.576L78.07,66.576z"/>
	<path d="M86.548,73.712v10.96c0,0.844,0.063,1.409,0.185,1.691c0.123,0.281,0.308,0.494,0.551,0.634
		c0.242,0.144,0.691,0.213,1.345,0.213v0.538h-6.633V87.21c0.667,0,1.114-0.065,1.347-0.19c0.229-0.129,0.414-0.34,0.551-0.638
		c0.135-0.294,0.199-0.866,0.199-1.71v-5.251c0-1.485-0.047-2.446-0.136-2.885c-0.076-0.32-0.188-0.54-0.337-0.662
		c-0.146-0.122-0.352-0.183-0.604-0.183c-0.281,0-0.621,0.078-1.021,0.229l-0.21-0.539l4.112-1.672L86.548,73.712L86.548,73.712z
		 M85.318,66.576c0.412,0,0.762,0.148,1.058,0.441c0.297,0.295,0.442,0.651,0.442,1.075c0,0.41-0.146,0.765-0.442,1.06
		c-0.296,0.297-0.646,0.439-1.058,0.439c-0.424,0-0.781-0.146-1.076-0.439c-0.297-0.295-0.442-0.646-0.442-1.06
		c0-0.424,0.146-0.78,0.442-1.075C84.537,66.725,84.896,66.576,85.318,66.576z"/>
	<path d="M102.259,74.113v8.27c0,1.576,0.038,2.543,0.115,2.895c0.076,0.354,0.196,0.599,0.356,0.729
		c0.16,0.136,0.349,0.203,0.564,0.203c0.311,0,0.654-0.083,1.037-0.252l0.213,0.521l-4.078,1.692h-0.672v-2.884
		c-1.165,1.27-2.059,2.066-2.673,2.395c-0.617,0.327-1.265,0.489-1.938,0.489c-0.771,0-1.436-0.222-1.99-0.662
		c-0.563-0.442-0.947-1.015-1.162-1.713c-0.221-0.698-0.331-1.682-0.331-2.951V76.77c0-0.653-0.068-1.104-0.21-1.348
		c-0.139-0.244-0.35-0.433-0.625-0.566c-0.274-0.135-0.766-0.193-1.471-0.183v-0.56h4.771v9.115c0,1.28,0.22,2.119,0.662,2.511
		c0.442,0.39,0.979,0.586,1.604,0.586c0.424,0,0.902-0.132,1.439-0.396c0.538-0.263,1.182-0.771,1.924-1.529v-7.729
		c0-0.771-0.143-1.293-0.423-1.568c-0.283-0.274-0.866-0.42-1.751-0.433v-0.562h4.636L102.259,74.113L102.259,74.113z"/>
	<path d="M109.604,76.613c0.988-0.985,1.572-1.557,1.752-1.711c0.447-0.37,0.936-0.662,1.451-0.875
		c0.521-0.211,1.028-0.315,1.529-0.315c0.857,0,1.596,0.249,2.209,0.749c0.615,0.499,1.025,1.217,1.232,2.152
		c1.021-1.191,1.89-1.977,2.596-2.344c0.705-0.373,1.428-0.561,2.172-0.561c0.717,0,1.357,0.188,1.923,0.561
		c0.564,0.367,1.007,0.979,1.327,1.821c0.219,0.58,0.328,1.481,0.328,2.716v5.862c0,0.847,0.063,1.431,0.191,1.748
		c0.103,0.22,0.289,0.403,0.558,0.56c0.271,0.153,0.706,0.23,1.308,0.23v0.538h-6.729V87.21h0.291c0.588,0,1.042-0.114,1.359-0.347
		c0.231-0.153,0.4-0.404,0.5-0.749c0.041-0.169,0.063-0.648,0.063-1.442v-5.865c0-1.115-0.139-1.896-0.404-2.347
		c-0.384-0.642-1.007-0.962-1.863-0.962c-0.525,0-1.058,0.132-1.586,0.396c-0.533,0.263-1.18,0.752-1.935,1.471l-0.021,0.152
		l0.021,0.653v6.499c0,0.938,0.058,1.518,0.163,1.739c0.107,0.225,0.311,0.413,0.596,0.563c0.289,0.155,0.778,0.232,1.473,0.232
		v0.538H113.2V87.21c0.758,0,1.276-0.091,1.56-0.271c0.279-0.183,0.48-0.447,0.596-0.81c0.053-0.167,0.076-0.651,0.076-1.461v-5.862
		c0-1.115-0.166-1.916-0.5-2.404c-0.436-0.627-1.045-0.941-1.826-0.941c-0.539,0-1.067,0.141-1.597,0.423
		c-0.819,0.438-1.454,0.931-1.903,1.48v7.308c0,0.885,0.063,1.461,0.185,1.729c0.122,0.271,0.31,0.474,0.55,0.607
		c0.242,0.135,0.736,0.201,1.479,0.201v0.538h-6.729V87.21c0.627,0,1.063-0.067,1.31-0.201c0.244-0.137,0.431-0.347,0.559-0.637
		c0.13-0.286,0.191-0.856,0.191-1.7V79.46c0-1.501-0.043-2.466-0.135-2.903c-0.063-0.332-0.171-0.561-0.316-0.683
		c-0.146-0.122-0.352-0.183-0.605-0.183c-0.281,0-0.613,0.078-1,0.229l-0.229-0.539l4.115-1.672h0.633v2.902L109.604,76.613
		L109.604,76.613z"/>
</g>
<g>
	<path d="M160.613,48.155v-21h2.34v18.87h6v2.13H160.613z"/>
	<path d="M178.192,36.455v2.1h-5.13v7.47h6.3v2.13h-8.64v-21h8.64v2.13h-6.3v7.17H178.192z"/>
	<path d="M183.892,43.925l-0.81,4.23h-2.16l4.02-21h3.391l4.02,21h-2.34l-0.811-4.23H183.892z M184.191,41.915h4.68l-2.369-12.12
		L184.191,41.915z"/>
	<path d="M199.102,27.155c1.641,0,2.845,0.465,3.616,1.395c0.77,0.93,1.154,2.205,1.154,3.825v10.59c0,1.62-0.385,2.89-1.154,3.81
		c-0.771,0.92-1.976,1.38-3.616,1.38h-4.92v-21H199.102z M199.072,46.025c0.84,0,1.465-0.255,1.875-0.765
		c0.409-0.51,0.614-1.245,0.614-2.205v-10.8c0-0.96-0.205-1.695-0.614-2.205c-0.41-0.51-1.045-0.765-1.905-0.765h-2.521v16.74
		H199.072z"/>
	<path d="M213.531,36.455v2.1h-5.13v7.47h6.3v2.13h-8.64v-21h8.64v2.13h-6.3v7.17H213.531z"/>
	<path d="M221.541,27.155c1.66,0,2.854,0.41,3.585,1.23c0.73,0.82,1.095,2.01,1.095,3.57v1.71c0,1.16-0.21,2.1-0.63,2.82
		c-0.42,0.72-1.08,1.22-1.979,1.5c0.96,0.28,1.64,0.795,2.04,1.545c0.399,0.75,0.6,1.695,0.6,2.835v3.27
		c0,0.46,0.02,0.905,0.061,1.335c0.039,0.43,0.159,0.825,0.359,1.185h-2.37c-0.14-0.3-0.239-0.625-0.3-0.975
		c-0.06-0.35-0.09-0.875-0.09-1.575v-3.3c0-1.18-0.266-1.995-0.795-2.445c-0.53-0.45-1.285-0.675-2.265-0.675h-1.65v8.97h-2.34v-21
		H221.541z M220.941,37.055c0.939,0,1.669-0.195,2.189-0.585s0.78-1.155,0.78-2.295v-2.01c0-0.96-0.186-1.68-0.555-2.16
		c-0.371-0.48-0.995-0.72-1.875-0.72h-2.28v7.77H220.941z"/>
	<path d="M233.092,26.945c1.6,0,2.779,0.475,3.54,1.425c0.76,0.95,1.14,2.225,1.14,3.825v0.57h-2.22v-0.69
		c0-0.96-0.19-1.7-0.57-2.22s-0.99-0.78-1.83-0.78s-1.45,0.26-1.83,0.78s-0.57,1.25-0.57,2.19c0,0.78,0.176,1.46,0.525,2.04
		s0.785,1.115,1.305,1.605c0.521,0.49,1.085,0.97,1.695,1.44c0.61,0.47,1.175,0.985,1.695,1.545c0.52,0.56,0.955,1.195,1.305,1.905
		c0.35,0.71,0.525,1.556,0.525,2.535c0,1.601-0.386,2.875-1.155,3.825c-0.771,0.95-1.965,1.425-3.585,1.425s-2.811-0.475-3.57-1.425
		c-0.76-0.95-1.14-2.225-1.14-3.825v-1.2h2.189v1.32c0,0.96,0.2,1.7,0.601,2.22c0.399,0.521,1.02,0.78,1.859,0.78
		c0.841,0,1.46-0.26,1.86-0.78c0.4-0.52,0.601-1.26,0.601-2.22c0-0.78-0.176-1.455-0.525-2.025c-0.351-0.57-0.785-1.1-1.305-1.59
		c-0.521-0.49-1.08-0.97-1.681-1.44c-0.6-0.47-1.16-0.985-1.68-1.545c-0.521-0.56-0.955-1.195-1.305-1.905
		c-0.351-0.71-0.525-1.555-0.525-2.535c0-1.62,0.38-2.9,1.14-3.84S231.512,26.945,233.092,26.945z"/>
	<path d="M242.181,38.705v9.45h-2.34v-21h2.34v9.45h5.16v-9.45h2.34v21h-2.34v-9.45H242.181z"/>
	<path d="M254.421,27.155v21h-2.34v-21H254.421z"/>
	<path d="M261.41,27.155c1.66,0,2.859,0.455,3.6,1.365s1.11,2.165,1.11,3.765v2.52c0,1.68-0.396,2.945-1.185,3.795
		c-0.791,0.851-2.025,1.275-3.705,1.275h-2.07v8.28h-2.34v-21H261.41z M261.23,37.775c0.88,0,1.529-0.215,1.949-0.645
		c0.421-0.43,0.631-1.155,0.631-2.175v-2.79c0-0.96-0.186-1.68-0.556-2.16s-0.985-0.72-1.845-0.72h-2.25v8.49H261.23z"/>
</g>
<g>
	<path d="M143.668,53.645c1.64,0,2.845,0.465,3.615,1.395c0.77,0.931,1.154,2.205,1.154,3.825v10.59c0,1.62-0.385,2.891-1.154,3.811
		c-0.771,0.92-1.976,1.38-3.615,1.38h-4.92v-21H143.668z M143.638,72.515c0.84,0,1.465-0.255,1.875-0.765
		c0.41-0.511,0.615-1.245,0.615-2.205V58.744c0-0.96-0.205-1.694-0.615-2.205c-0.41-0.51-1.045-0.765-1.905-0.765h-2.52v16.74
		H143.638z"/>
	<path d="M158.098,62.944v2.101h-5.13v7.47h6.3v2.13h-8.64v-21h8.64v2.13h-6.3v7.17H158.098z"/>
	<path d="M163.197,53.645l3.42,18.27l3.391-18.27h2.16l-3.931,21h-3.45l-3.96-21H163.197z"/>
	<path d="M181.438,62.944v2.101h-5.13v7.47h6.3v2.13h-8.64v-21h8.64v2.13h-6.3v7.17H181.438z"/>
	<path d="M184.767,74.645v-21h2.34v18.87h6v2.13H184.767z"/>
	<path d="M194.696,58.715c0-1.62,0.396-2.905,1.186-3.855c0.79-0.949,1.995-1.425,3.615-1.425s2.829,0.476,3.63,1.425
		c0.8,0.95,1.2,2.235,1.2,3.855v10.859c0,1.601-0.4,2.88-1.2,3.84c-0.801,0.961-2.01,1.44-3.63,1.44s-2.825-0.479-3.615-1.44
		c-0.79-0.96-1.186-2.239-1.186-3.84V58.715z M197.007,69.694c0,0.96,0.205,1.705,0.615,2.235c0.409,0.53,1.035,0.795,1.875,0.795
		c0.859,0,1.489-0.265,1.89-0.795c0.399-0.53,0.6-1.275,0.6-2.235v-11.1c0-0.96-0.2-1.705-0.6-2.235
		c-0.4-0.529-1.03-0.795-1.89-0.795c-0.84,0-1.466,0.266-1.875,0.795c-0.41,0.53-0.615,1.275-0.615,2.235V69.694z"/>
	<path d="M211.137,53.645c1.66,0,2.859,0.455,3.6,1.365s1.11,2.165,1.11,3.765v2.521c0,1.68-0.396,2.944-1.185,3.795
		c-0.791,0.85-2.025,1.274-3.705,1.274h-2.07v8.28h-2.34v-21H211.137z M210.957,64.265c0.88,0,1.529-0.215,1.949-0.646
		c0.421-0.43,0.631-1.154,0.631-2.175v-2.79c0-0.96-0.186-1.68-0.556-2.16c-0.37-0.479-0.985-0.72-1.845-0.72h-2.25v8.49H210.957z"
		/>
	<path d="M225.507,74.614h-2.25l-3.48-16.71v16.74h-2.04v-21h3.271l3.449,16.77l3.33-16.77h3.271v21h-2.221v-16.89L225.507,74.614z"
		/>
	<path d="M240.926,62.944v2.101h-5.13v7.47h6.3v2.13h-8.64v-21h8.64v2.13h-6.3v7.17H240.926z"/>
	<path d="M246.325,74.645h-2.1v-21h2.97l4.86,15.18v-15.18h2.07v21h-2.431l-5.37-16.98V74.645z"/>
	<path d="M259.585,74.645v-18.87h-3.87v-2.13h10.08v2.13h-3.87v18.87H259.585z"/>
</g>
<path fill="none" stroke="#000000" stroke-miterlimit="10" d="M135.75,90"/>
<g>
	<path d="M133.631,98.48c0,0-0.053-1.519-0.146-4.177c-0.061-2.658-0.207-6.456-0.275-11.013c-0.062-4.557-0.2-9.873-0.229-15.568
		c-0.032-5.696-0.065-11.771-0.1-17.848c0.033-6.075,0.067-12.151,0.099-17.847c0.024-5.696,0.167-11.012,0.229-15.569
		c0.066-4.557,0.216-8.354,0.276-11.012c0.093-2.658,0.146-4.177,0.146-4.177s0.053,1.519,0.146,4.177
		c0.061,2.658,0.21,6.455,0.276,11.012c0.062,4.557,0.204,9.873,0.229,15.569c0.031,5.696,0.065,11.772,0.099,17.847
		c-0.034,6.076-0.067,12.151-0.1,17.848c-0.028,5.695-0.167,11.012-0.229,15.568c-0.068,4.557-0.215,8.354-0.275,11.013
		C133.684,96.962,133.631,98.48,133.631,98.48z"/>
</g>
</svg>
